<svg width="16" height="18" viewBox="0 0 16 18" fill="none" xmlns="http://www.w3.org/2000/svg">
<path d="M9.4545 3.18181C9.4545 2.77926 9.29459 2.39321 9.00995 2.10857C8.72531 1.82393 8.33925 1.66402 7.93671 1.66402C7.53417 1.66402 7.14811 1.82393 6.86347 2.10857C6.57883 2.39321 6.41892 2.77926 6.41892 3.18181H5.40707C5.40707 2.5109 5.67358 1.86748 6.14798 1.39308C6.62238 0.918676 7.26581 0.652161 7.93671 0.652161C8.60761 0.652161 9.25104 0.918676 9.72544 1.39308C10.1998 1.86748 10.4664 2.5109 10.4664 3.18181H15.0197C15.1539 3.1818 15.2826 3.23511 15.3775 3.32999C15.4723 3.42487 15.5256 3.55355 15.5256 3.68773C15.5256 3.82191 15.4723 3.9506 15.3775 4.04548C15.2826 4.14036 15.1539 4.19366 15.0197 4.19366H14.4591L13.1478 15.5568C13.0907 16.05 12.8543 16.505 12.4836 16.8352C12.1129 17.1654 11.6337 17.3479 11.1372 17.3478H4.7362C4.23973 17.3479 3.76056 17.1654 3.38985 16.8352C3.01913 16.505 2.78274 16.05 2.72564 15.5568L1.41326 4.19366H0.853707C0.735294 4.1937 0.620618 4.15221 0.529651 4.0764C0.438683 4.00059 0.377187 3.89528 0.355873 3.7788L0.347778 3.68773C0.347778 3.55355 0.401081 3.42487 0.495962 3.32999C0.590842 3.23511 0.719526 3.1818 0.853707 3.18181H9.4545ZM13.4392 4.19366H2.43322L3.73042 15.4405C3.75898 15.6871 3.87724 15.9147 4.06271 16.0798C4.24817 16.245 4.48788 16.3361 4.7362 16.336H11.1372C11.3854 16.3359 11.6248 16.2446 11.8101 16.0795C11.9953 15.9144 12.1135 15.687 12.142 15.4405L13.4392 4.19366ZM6.41892 6.72331C6.66683 6.72331 6.87426 6.88015 6.91676 7.08656L6.92485 7.1665V13.3641C6.92485 13.608 6.6982 13.8063 6.41892 13.8063C6.17102 13.8063 5.96359 13.6495 5.92109 13.4431L5.913 13.3631V7.16751C5.913 6.92264 6.13965 6.72432 6.41892 6.72432V6.72331ZM9.4545 6.72331C9.7024 6.72331 9.90983 6.88015 9.95233 7.08656L9.96043 7.1665V13.3641C9.96043 13.608 9.73377 13.8063 9.4545 13.8063C9.20659 13.8063 8.99916 13.6495 8.95666 13.4431L8.94857 13.3631V7.16751C8.94857 6.92264 9.17522 6.72432 9.4545 6.72432V6.72331Z" fill="url(#paint0_linear_239_58)"/>
<defs>
<linearGradient id="paint0_linear_239_58" x1="0.347778" y1="0.652161" x2="16.6879" y2="1.87999" gradientUnits="userSpaceOnUse">
<stop stop-color="#007BFF"/>
<stop offset="1" stop-color="#29FDCA"/>
</linearGradient>
</defs>
</svg>
